<?xml version="1.0" encoding="utf-8"?>
<!-- Generator: Adobe Illustrator 15.1.0, SVG Export Plug-In . SVG Version: 6.00 Build 0)  -->
<!DOCTYPE svg PUBLIC "-//W3C//DTD SVG 1.1//EN" "http://www.w3.org/Graphics/SVG/1.1/DTD/svg11.dtd">
<svg version="1.1" id="Layer_1" xmlns="http://www.w3.org/2000/svg" xmlns:xlink="http://www.w3.org/1999/xlink" x="0px" y="0px"
	 width="268.333px" height="51.667px" viewBox="0 0 268.333 51.667" enable-background="new 0 0 268.333 51.667"
	 xml:space="preserve">
<path fill="#FFFFFF" d="M140.045,41.275c-1.249,0.727-2.585,1.319-3.991,1.758c-1.317,0.41-2.695,0.685-4.115,0.807h-0.007V4.522
	h1.171L140.045,41.275z"/>
<path fill="#FFFFFF" d="M120.489,41.275c1.249,0.727,2.586,1.319,3.992,1.758c1.317,0.41,2.694,0.685,4.114,0.807h0.008V4.522
	h-1.173L120.489,41.275z"/>
<path fill="#FFFFFF" d="M148.904,18.584c-1.901-6.102-6.717-10.918-12.819-12.819c-0.032-0.009-0.063-0.018-0.094-0.027v4.221
	c4.334,1.718,7.713,5.327,9.11,9.812c0.456,1.461,0.701,3.015,0.701,4.625c0,1.611-0.245,3.164-0.701,4.625
	c-0.689,2.214-1.865,4.211-3.396,5.877l0.938,4.578c2.907-2.387,5.117-5.591,6.262-9.268c0.572-1.835,0.881-3.787,0.881-5.812
	C149.785,22.372,149.476,20.42,148.904,18.584"/>
<path fill="#FFFFFF" d="M118.842,34.905c-1.534-1.667-2.706-3.669-3.396-5.885c-0.456-1.461-0.701-3.014-0.701-4.625
	c0-1.61,0.246-3.164,0.701-4.625c1.42-4.558,4.884-8.214,9.32-9.897V5.677c-0.101,0.03-0.204,0.057-0.304,0.088
	c-6.102,1.901-10.918,6.717-12.819,12.819c-0.572,1.836-0.88,3.787-0.88,5.811c0,2.025,0.309,3.976,0.88,5.812
	c1.139,3.654,3.323,6.847,6.203,9.229L118.842,34.905z"/>
<path fill="#FFFFFF" d="M121.719,3.588V2.91h-12.933v12.913h0.687C111.759,10.288,116.182,5.868,121.719,3.588"/>
<path fill="#FFFFFF" d="M138.815,45.208v0.674h12.944V32.919h-0.667C148.813,38.481,144.375,42.923,138.815,45.208"/>
<path fill="#FFFFFF" d="M151.072,15.822h0.687V2.91h-12.944v0.675C144.358,5.861,148.786,10.284,151.072,15.822"/>
<path fill="#FFFFFF" d="M109.453,32.919h-0.667v12.963h12.933v-0.679C116.165,42.917,111.731,38.477,109.453,32.919"/>
<path fill="#FFFFFF" d="M12.991,11.177l5.271,13.643c0.264,0.682,0.575,1.194,0.933,1.534c0.357,0.341,0.82,0.571,1.387,0.688
	c0.139,0.025,0.209,0.156,0.209,0.393c0,0.249-0.09,0.368-0.269,0.356c-0.101-0.01-0.249-0.034-0.443-0.073
	c-0.601-0.117-1.566-0.177-2.898-0.177c-1.34,0-2.252,0.066-2.734,0.196c-0.117,0.035-0.219,0.054-0.304,0.054
	c-0.218,0-0.327-0.133-0.327-0.401c0-0.127,0.085-0.222,0.256-0.287c0.373-0.128,0.682-0.347,0.927-0.657
	c0.244-0.311,0.367-0.64,0.367-0.992c0-0.48-0.334-1.545-1-3.194c-0.208-0.503-0.437-0.79-0.687-0.86s-1.137-0.105-2.66-0.105H9.449
	L8.41,21.49c-0.285,0.155-0.608,0.733-0.97,1.738L7.082,24.24c-0.108,0.295-0.162,0.591-0.162,0.886c0,1.1,0.685,1.738,2.057,1.916
	c0.295,0.049,0.44,0.177,0.432,0.383c-0.016,0.244-0.156,0.366-0.42,0.366c-0.141,0-0.339-0.038-0.596-0.111
	c-0.514-0.134-0.974-0.201-1.378-0.201c-0.366,0-0.959,0.044-1.776,0.134c-0.607,0.076-0.985,0.115-1.132,0.115
	c-0.218,0-0.328-0.112-0.328-0.338c0-0.188,0.109-0.324,0.327-0.411c0.419-0.153,0.755-0.426,1.008-0.82
	c0.252-0.395,0.627-1.226,1.122-2.497l3.167-8.236c0.255-0.646,0.433-1.093,0.534-1.341l1.078-2.504L11.57,10.4
	c0.249-0.689,0.416-1.034,0.501-1.034c0.124,0,0.338,0.375,0.642,1.124L12.991,11.177z M13.41,19.41l-1.506-4.01
	c-0.362-0.965-0.62-1.448-0.773-1.448c-0.093,0-0.263,0.313-0.509,0.936l-0.22,0.549l-1.354,3.497L8.92,19.251
	c-0.054,0.143-0.081,0.26-0.081,0.353c0,0.295,0.277,0.442,0.832,0.442h3.416c0.292,0,0.438-0.094,0.438-0.283
	c0-0.035-0.019-0.105-0.057-0.212L13.41,19.41z"/>
<path fill="#FFFFFF" d="M25.953,23.521l0.092,1.309c0.092,0.684,0.317,1.203,0.674,1.557c0.357,0.353,0.824,0.53,1.401,0.53
	c0.376,0,0.565,0.136,0.565,0.406c0,0.271-0.25,0.406-0.749,0.406c-0.216,0-0.523-0.024-0.922-0.071
	c-0.999-0.119-1.81-0.179-2.432-0.179c-0.769,0-1.375,0.044-1.82,0.133c-0.385,0.077-0.661,0.116-0.831,0.116
	c-0.169,0-0.276-0.09-0.322-0.271l-0.022-0.108l0.333-0.307c0.552-0.225,0.918-0.503,1.099-0.835c0.18-0.332,0.27-0.876,0.27-1.636
	l0.012-1.173V12.89c0-0.805-0.124-1.379-0.371-1.723c-0.248-0.343-0.699-0.569-1.355-0.676c-0.394-0.073-0.646-0.144-0.759-0.21
	c-0.112-0.068-0.167-0.188-0.167-0.359c0-0.244,0.092-0.367,0.276-0.367c0.138,0.014,0.345,0.055,0.622,0.125
	c0.276,0.083,0.741,0.125,1.394,0.125c0.43,0,0.964-0.028,1.602-0.083l0.841-0.067c0.791-0.066,1.398-0.099,1.821-0.099
	c0.253,0,0.379,0.116,0.379,0.348c0,0.168-0.019,0.28-0.057,0.337c-0.038,0.059-0.133,0.101-0.285,0.126
	c-0.548,0.106-0.899,0.28-1.055,0.522c-0.157,0.242-0.234,0.74-0.234,1.494V23.521z"/>
<path fill="#FFFFFF" d="M34.341,22.495c0,1.667,0.134,2.795,0.405,3.385c0.271,0.591,0.803,0.934,1.597,1.028
	c0.324,0.025,0.486,0.168,0.486,0.429c0,0.262-0.131,0.392-0.393,0.392c-0.085,0-0.243-0.013-0.474-0.036
	c-0.663-0.059-1.302-0.089-1.918-0.089c-0.516,0-0.975,0.012-1.375,0.033l-0.971,0.101l-0.774,0.083
	c-0.216,0.021-0.366,0.033-0.451,0.033c-0.278,0-0.417-0.122-0.417-0.366c0-0.194,0.077-0.322,0.231-0.383
	c0.525-0.178,0.888-0.423,1.088-0.736c0.2-0.313,0.301-0.789,0.301-1.428V23.7l0.011-0.514v-9.504c0-1.053-0.117-1.761-0.35-2.128
	c-0.381-0.578-1.003-0.933-1.865-1.063c-0.319-0.051-0.478-0.208-0.478-0.475c0-0.266,0.108-0.399,0.326-0.399
	c0.085,0,0.224,0.022,0.418,0.063c0.597,0.083,1.252,0.125,1.964,0.125c0.783,0,1.733-0.042,2.85-0.125
	c1.31-0.083,2.212-0.125,2.708-0.125c1.473,0,2.693,0.452,3.662,1.355c0.969,0.903,1.454,2.04,1.454,3.409
	c0,0.875-0.215,1.665-0.646,2.374c-0.431,0.708-1.023,1.245-1.776,1.611c-0.155,0.071-0.229,0.16-0.221,0.266
	c0.008,0.083,0.046,0.183,0.117,0.302c0.069,0.13,0.174,0.337,0.313,0.621l1.036,2.076l1.199,2.413
	c0.411,0.816,0.778,1.381,1.101,1.694c0.322,0.314,0.7,0.47,1.135,0.47c0.178,0,0.345-0.018,0.5-0.053
	c0.093-0.023,0.178-0.036,0.256-0.036c0.14,0,0.209,0.101,0.209,0.302c0,0.249-0.318,0.54-0.956,0.872
	c-0.637,0.334-1.203,0.5-1.696,0.5c-0.797,0-1.531-0.443-2.204-1.329c-0.673-0.887-1.546-2.573-2.621-5.06
	c-0.418-0.976-0.763-1.592-1.035-1.848c-0.272-0.255-0.715-0.383-1.328-0.383H35.04l-0.524,0.089
	c-0.117,0.071-0.174,0.284-0.174,0.638V22.495z M34.341,12.287v4.531c0,0.567,0.063,0.924,0.192,1.072
	c0.129,0.147,0.434,0.221,0.917,0.221c1.386,0,2.245-0.029,2.576-0.088c0.331-0.059,0.64-0.236,0.929-0.532
	c0.568-0.578,0.853-1.374,0.853-2.389c0-1.31-0.384-2.395-1.15-3.256c-0.768-0.861-1.743-1.292-2.926-1.292
	c-0.53,0-0.894,0.124-1.092,0.372C34.44,11.172,34.341,11.627,34.341,12.287"/>
<path fill="#FFFFFF" d="M50.769,23.535c0,1.644,0.174,2.565,0.523,2.767c0.194,0.119,0.573,0.178,1.139,0.178
	c2.634,0,4.5-0.879,5.601-2.639c0.341-0.531,0.556-0.796,0.643-0.796c0.143,0,0.214,0.183,0.214,0.55
	c0,1.113-0.326,2.106-0.979,2.98c-0.566,0.77-1.338,1.154-2.315,1.154c-0.202,0-0.57-0.022-1.105-0.066
	c-0.141-0.011-0.605-0.039-1.396-0.084l-1.268-0.067c-0.427-0.021-0.912-0.032-1.454-0.032c-0.9,0-1.869,0.062-2.908,0.188
	c-0.318,0.041-0.532,0.062-0.64,0.062c-0.225,0-0.337-0.12-0.337-0.362c0-0.156,0.102-0.265,0.306-0.325
	c0.501-0.154,0.847-0.459,1.039-0.917c0.191-0.457,0.288-1.195,0.288-2.216V12.875c0-1.399-0.517-2.195-1.55-2.384l-0.699-0.125
	c-0.296-0.06-0.443-0.192-0.443-0.397c0-0.276,0.116-0.414,0.349-0.414c0.077,0,0.189,0.021,0.337,0.062
	c0.108,0,0.259,0.022,0.453,0.063l0.5,0.042c0.472,0.055,0.824,0.083,1.057,0.083c0.372,0,0.965-0.05,1.778-0.15
	c0.604-0.066,1.22-0.099,1.847-0.099c0.465,0,0.698,0.131,0.698,0.393c0,0.226-0.167,0.345-0.5,0.356
	c-0.783,0.071-1.173,0.68-1.173,1.827V23.535z"/>
<path fill="#FFFFFF" d="M64.211,23.521l0.092,1.309c0.092,0.684,0.317,1.203,0.675,1.557c0.356,0.353,0.824,0.53,1.401,0.53
	c0.377,0,0.565,0.136,0.565,0.406c0,0.271-0.25,0.406-0.749,0.406c-0.215,0-0.523-0.024-0.922-0.071
	c-0.999-0.119-1.81-0.179-2.432-0.179c-0.769,0-1.376,0.044-1.821,0.133c-0.384,0.077-0.661,0.116-0.829,0.116
	c-0.169,0-0.277-0.09-0.323-0.271l-0.023-0.108l0.333-0.307c0.552-0.225,0.918-0.503,1.099-0.835
	c0.18-0.332,0.271-0.876,0.271-1.636l0.011-1.173V12.89c0-0.805-0.124-1.379-0.371-1.723c-0.248-0.343-0.699-0.569-1.354-0.676
	c-0.394-0.073-0.646-0.144-0.759-0.21c-0.112-0.068-0.168-0.188-0.168-0.359c0-0.244,0.092-0.367,0.277-0.367
	c0.138,0.014,0.346,0.055,0.623,0.125c0.276,0.083,0.741,0.125,1.394,0.125c0.43,0,0.964-0.028,1.601-0.083l0.841-0.067
	c0.791-0.066,1.397-0.099,1.82-0.099c0.253,0,0.38,0.116,0.38,0.348c0,0.168-0.02,0.28-0.058,0.337
	c-0.038,0.059-0.133,0.101-0.285,0.126c-0.548,0.106-0.9,0.28-1.056,0.522c-0.156,0.242-0.234,0.74-0.234,1.494V23.521z"/>
<path fill="#FFFFFF" d="M74.007,12.64l6.122,7.805l0.393,0.497c0.523,0.674,0.874,1.011,1.051,1.011c0.162,0,0.25-0.271,0.266-0.814
	c0.069-1.922,0.104-3.762,0.104-5.521c0-2.051-0.184-3.44-0.552-4.166c-0.368-0.725-1.09-1.129-2.166-1.212
	c-0.255-0.013-0.383-0.121-0.383-0.324c0-0.242,0.112-0.363,0.338-0.363c0.28,0,0.73,0.048,1.352,0.145
	c0.404,0.07,0.738,0.104,1.003,0.104c0.536,0,1.387-0.091,2.553-0.273c0.155-0.025,0.268-0.039,0.338-0.039
	c0.249,0,0.374,0.132,0.374,0.396c0,0.227-0.125,0.366-0.374,0.416c-1.003,0.214-1.503,1.221-1.503,3.021v0.64l-0.166,8.228
	l-0.047,1.138l-0.011,1.457l0.011,0.996l0.047,1.653c0,0.236-0.079,0.355-0.235,0.355c-0.139-0.012-0.282-0.113-0.428-0.302
	L71.557,14.163c-0.185-0.237-0.313-0.356-0.381-0.356c-0.186,0-0.278,0.201-0.278,0.601l-0.012,0.371v5.075
	c0,2.724,0.12,4.545,0.361,5.464c0.255,0.979,1.011,1.533,2.269,1.663c0.232,0.025,0.349,0.136,0.349,0.333
	c0,0.271-0.121,0.407-0.362,0.407c-0.094,0-0.245-0.019-0.455-0.054c-0.654-0.125-1.377-0.187-2.17-0.187
	c-0.786,0-1.486,0.058-2.1,0.171c-0.272,0.052-0.471,0.078-0.596,0.078c-0.21,0-0.315-0.115-0.315-0.345
	c0-0.193,0.112-0.327,0.336-0.404c0.564-0.176,0.976-0.548,1.234-1.117c0.259-0.569,0.389-1.393,0.389-2.472l0.081-3.096v-5.646
	c0-2.674-0.875-4.081-2.621-4.221c-0.239-0.025-0.358-0.144-0.358-0.356c0-0.262,0.132-0.394,0.396-0.394l0.803,0.08l0.489-0.017
	c0.605,0,1.252-0.048,1.943-0.146c0.256-0.027,0.47-0.042,0.64-0.042c0.239,0,0.427,0.06,0.566,0.177
	c0.138,0.12,0.431,0.479,0.877,1.082l0.797,1.064C73.756,12.304,73.945,12.558,74.007,12.64"/>
<path fill="#FFFFFF" d="M90.665,13.546v4.82c0,0.334,0.066,0.501,0.198,0.501c0.069,0,0.255-0.131,0.557-0.397l1.14-1.173
	l1.627-1.661c2.14-2.202,3.209-3.706,3.209-4.513c0-0.265-0.101-0.478-0.301-0.64c-0.2-0.162-0.466-0.244-0.797-0.244
	c-0.248,0-0.371-0.121-0.371-0.362c0-0.217,0.143-0.325,0.43-0.325c0.317,0,0.643,0.025,0.976,0.077
	c0.828,0.115,1.409,0.173,1.742,0.173c0.247,0,0.553-0.025,0.917-0.077c0.789-0.115,1.338-0.172,1.648-0.172
	c0.271,0,0.407,0.133,0.407,0.396c0,0.215-0.17,0.354-0.51,0.416c-0.542,0.096-1.156,0.419-1.844,0.97
	c-0.688,0.552-1.672,1.51-2.952,2.874c-0.593,0.641-0.999,1.063-1.217,1.264c-0.655,0.628-0.983,1.091-0.983,1.388
	c0,0.215,0.175,0.6,0.525,1.157l0.84,1.282c1.944,3.025,3.352,5.037,4.224,6.033c0.609,0.713,1.469,1.241,2.58,1.584l0.243,0.095
	c0.193,0.064,0.286,0.21,0.278,0.437c-0.007,0.229-0.127,0.343-0.358,0.343c-0.085,0-0.196-0.007-0.334-0.021
	c-0.755-0.111-1.394-0.167-1.918-0.167c-0.247,0-0.505,0.022-0.774,0.063c-0.5,0.083-0.809,0.125-0.924,0.125
	c-0.4,0-0.762-0.227-1.085-0.68c-0.032-0.048-0.178-0.257-0.439-0.627c-0.668-0.907-1.527-2.16-2.579-3.76s-1.702-2.645-1.95-3.135
	c-0.219-0.406-0.398-0.609-0.539-0.609c-0.094,0-0.211,0.085-0.352,0.255l-0.352,0.381l-0.503,0.564
	c-0.204,0.235-0.331,0.471-0.381,0.705c-0.051,0.235-0.076,0.733-0.076,1.497v0.563c0,1.41,0.129,2.411,0.386,3.004
	s0.707,0.918,1.346,0.977c0.423,0.025,0.635,0.16,0.635,0.406c0,0.271-0.127,0.406-0.38,0.406c-0.146,0-0.388-0.029-0.726-0.087
	c-0.415-0.066-0.944-0.101-1.59-0.101c-0.86,0-1.673,0.048-2.441,0.142c-0.492,0.047-0.888,0.071-1.187,0.071
	c-0.3,0-0.449-0.133-0.449-0.4c0-0.194,0.099-0.319,0.298-0.375c0.55-0.094,0.93-0.371,1.14-0.83c0.21-0.46,0.316-1.244,0.316-2.353
	V13.284l0.012-0.513l-0.104-0.743c-0.116-0.47-0.333-0.827-0.652-1.068c-0.32-0.242-0.78-0.398-1.381-0.47
	c-0.185-0.037-0.299-0.082-0.34-0.133c-0.042-0.051-0.063-0.19-0.063-0.418c0-0.214,0.107-0.323,0.324-0.323
	c0.193,0,0.386,0.018,0.579,0.05c0.802,0.092,1.731,0.137,2.788,0.137c0.902,0,1.715-0.045,2.441-0.137
	c0.2-0.022,0.371-0.039,0.51-0.05c0.223,0,0.335,0.124,0.335,0.372c0,0.161-0.097,0.267-0.292,0.315
	c-0.668,0.216-1.084,0.476-1.248,0.78c-0.163,0.304-0.245,0.971-0.245,1.998L90.665,13.546z"/>
<path fill="#FFFFFF" d="M4.875,44.661l0.029,0.43c0.03,0.225,0.102,0.395,0.216,0.511c0.114,0.116,0.264,0.174,0.449,0.174
	c0.121,0,0.182,0.043,0.182,0.129c0,0.086-0.08,0.13-0.241,0.13c-0.069,0-0.167-0.009-0.295-0.026
	c-0.321-0.044-0.581-0.065-0.78-0.065c-0.246,0-0.441,0.016-0.584,0.048c-0.123,0.029-0.212,0.043-0.266,0.043
	s-0.089-0.03-0.104-0.09l-0.008-0.036l0.108-0.103c0.179-0.073,0.297-0.165,0.355-0.273s0.087-0.288,0.087-0.536l0.004-0.384v-3.44
	c0-0.265-0.039-0.452-0.119-0.565c-0.078-0.113-0.223-0.186-0.432-0.221c-0.125-0.024-0.207-0.047-0.242-0.069
	c-0.036-0.022-0.054-0.061-0.054-0.117c0-0.079,0.03-0.119,0.088-0.119c0.044,0.005,0.111,0.02,0.199,0.046
	c0.088,0.03,0.237,0.045,0.446,0.045c0.138,0,0.309-0.01,0.512-0.031l0.269-0.024c0.253-0.025,0.447-0.037,0.583-0.037
	c0.081,0,0.122,0.037,0.122,0.111c0,0.054-0.006,0.09-0.019,0.108s-0.042,0.032-0.092,0.04C5.114,40.375,5,40.433,4.95,40.512
	s-0.075,0.243-0.075,0.491V44.661z"/>
<path fill="#FFFFFF" d="M8.663,41.102l1.951,2.542l0.125,0.162c0.167,0.22,0.278,0.329,0.335,0.329c0.051,0,0.08-0.088,0.084-0.268
	c0.022-0.632,0.033-1.238,0.033-1.817c0-0.675-0.058-1.132-0.175-1.372c-0.117-0.238-0.345-0.371-0.687-0.398
	c-0.081-0.004-0.121-0.038-0.121-0.101c0-0.075,0.035-0.113,0.107-0.113c0.088,0,0.231,0.018,0.428,0.054
	c0.128,0.025,0.234,0.038,0.318,0.038c0.17,0,0.439-0.035,0.809-0.107c0.049-0.009,0.084-0.015,0.107-0.015
	c0.079,0,0.119,0.042,0.119,0.127c0,0.073-0.04,0.116-0.118,0.132c-0.317,0.07-0.476,0.4-0.476,0.989v0.209l-0.053,2.693
	l-0.015,0.373l-0.004,0.477l0.004,0.326l0.015,0.541c0,0.078-0.025,0.116-0.075,0.116c-0.044-0.003-0.09-0.037-0.137-0.099
	l-3.356-4.337c-0.059-0.078-0.1-0.117-0.122-0.117c-0.059,0-0.088,0.066-0.088,0.197l-0.004,0.122v1.66
	c0,0.89,0.039,1.486,0.115,1.786c0.081,0.321,0.321,0.502,0.719,0.544c0.074,0.008,0.111,0.046,0.111,0.111
	c0,0.09-0.038,0.135-0.115,0.135c-0.03,0-0.078-0.005-0.145-0.017c-0.208-0.041-0.438-0.061-0.69-0.061
	c-0.25,0-0.472,0.021-0.667,0.063c-0.087,0.019-0.15,0.028-0.189,0.028c-0.067,0-0.1-0.035-0.1-0.106
	c0-0.058,0.036-0.099,0.107-0.123c0.18-0.058,0.312-0.18,0.395-0.366c0.083-0.187,0.124-0.458,0.124-0.812l0.026-1.016v-1.854
	c0-0.877-0.28-1.34-0.839-1.386c-0.077-0.009-0.114-0.047-0.114-0.116c0-0.085,0.042-0.128,0.126-0.128l0.257,0.021l0.156-0.006
	c0.194,0,0.4-0.011,0.621-0.035c0.082-0.007,0.15-0.011,0.205-0.011c0.076,0,0.136,0.02,0.18,0.058s0.138,0.156,0.28,0.352
	l0.254,0.347C8.583,40.992,8.644,41.075,8.663,41.102"/>
<path fill="#FFFFFF" d="M15.766,41.142v3.235c0,0.483,0.061,0.827,0.182,1.029c0.121,0.203,0.333,0.316,0.639,0.339
	c0.089,0.009,0.133,0.06,0.133,0.155c0,0.07-0.039,0.105-0.115,0.105h-0.092l-0.277-0.02l-0.461-0.032
	c-0.037-0.003-0.086-0.005-0.148-0.005c-0.143,0-0.27,0.003-0.383,0.011l-0.815,0.07c-0.086,0.014-0.145,0.021-0.177,0.021
	c-0.076,0-0.113-0.04-0.111-0.117c0.003-0.063,0.015-0.103,0.037-0.123c0.022-0.02,0.07-0.032,0.144-0.035
	c0.192-0.015,0.34-0.098,0.444-0.245c0.104-0.147,0.157-0.349,0.157-0.605l-0.003-0.203v-3.831c0-0.225-0.104-0.338-0.314-0.338
	c-0.493,0-0.83,0.042-1.01,0.123c-0.131,0.065-0.218,0.137-0.261,0.215c-0.043,0.078-0.102,0.273-0.175,0.587l-0.03,0.122
	c-0.028,0.117-0.07,0.174-0.127,0.174c-0.083,0-0.121-0.044-0.116-0.132c0.002-0.078,0.015-0.187,0.037-0.33l0.038-0.375
	l0.045-0.382l0.026-0.261c0.01-0.111,0.062-0.167,0.155-0.167c0.024,0,0.067,0.003,0.126,0.011c0.096,0.007,0.233,0.011,0.411,0.011
	l0.755,0.005l0.899,0.018c0.58,0,1.194-0.025,1.843-0.077c0.128-0.01,0.211-0.015,0.248-0.015c0.136,0,0.207,0.068,0.215,0.205
	l0.018,0.31c0.002,0.046,0.014,0.164,0.035,0.351c0.017,0.151,0.025,0.274,0.025,0.368c0,0.093-0.033,0.14-0.098,0.14
	c-0.056,0-0.095-0.054-0.116-0.162c-0.052-0.267-0.152-0.459-0.299-0.577s-0.36-0.177-0.64-0.177c-0.376,0-0.611,0.034-0.703,0.102
	C15.813,40.708,15.766,40.875,15.766,41.142"/>
<path fill="#FFFFFF" d="M20.187,41.118v0.928c0,0.265,0.017,0.434,0.05,0.505s0.114,0.106,0.243,0.106l0.112-0.005l0.163-0.006
	h0.316c0.245,0,0.434-0.157,0.568-0.472l0.085-0.209c0.022-0.051,0.06-0.078,0.112-0.082c0.055-0.004,0.083,0.035,0.083,0.117
	c0,0.023-0.004,0.087-0.012,0.192c-0.005,0.074-0.008,0.136-0.008,0.187c0,0.093,0.012,0.31,0.035,0.647
	c0.016,0.223,0.023,0.417,0.023,0.584l0.003,0.216c0,0.043-0.003,0.072-0.011,0.088c-0.01,0.016-0.03,0.025-0.061,0.029
	c-0.063,0.004-0.102-0.05-0.117-0.164c-0.032-0.244-0.107-0.431-0.223-0.559c-0.064-0.069-0.143-0.114-0.236-0.134
	c-0.093-0.02-0.267-0.029-0.522-0.029H20.54c-0.119,0-0.201,0.02-0.244,0.06c-0.043,0.041-0.072,0.124-0.086,0.25
	c-0.015,0.143-0.023,0.367-0.023,0.675v0.386c0,0.399,0.027,0.688,0.082,0.865c0.042,0.127,0.091,0.213,0.148,0.259
	c0.056,0.046,0.144,0.069,0.262,0.069c1,0,1.653-0.352,1.961-1.057c0.017-0.035,0.032-0.054,0.044-0.058
	c0.025-0.003,0.048,0.007,0.07,0.033c0.021,0.025,0.031,0.056,0.031,0.091c0,0.284-0.065,0.559-0.195,0.824
	c-0.108,0.226-0.244,0.387-0.406,0.482c-0.163,0.096-0.377,0.144-0.646,0.144c-0.158,0-0.333-0.012-0.524-0.035l-0.428-0.047
	c-0.158-0.016-0.371-0.024-0.639-0.024c-0.179,0-0.452,0.011-0.819,0.031c-0.101,0.01-0.174,0.015-0.218,0.015
	c-0.059,0-0.091-0.035-0.096-0.105c-0.002-0.054,0.025-0.095,0.081-0.124c0.14-0.061,0.234-0.126,0.285-0.196s0.09-0.193,0.12-0.374
	c0.027-0.149,0.041-0.355,0.041-0.616v-3.378c0-0.319-0.045-0.535-0.134-0.647c-0.089-0.113-0.274-0.192-0.556-0.239
	c-0.066-0.011-0.099-0.052-0.099-0.123c0-0.071,0.041-0.106,0.122-0.106c0.018,0,0.054,0.004,0.111,0.01
	c0.044,0.003,0.105,0.005,0.181,0.005l0.374,0.015l1.4,0.015c0.805,0,1.301-0.013,1.488-0.04c0.02-0.004,0.037-0.006,0.052-0.006
	c0.072,0,0.107,0.048,0.107,0.146c0,0.066,0.007,0.183,0.021,0.35c0.019,0.251,0.027,0.432,0.027,0.541
	c0,0.217-0.048,0.331-0.144,0.338c-0.047,0.004-0.071-0.061-0.071-0.193c0-0.285-0.089-0.492-0.269-0.621
	c-0.179-0.129-0.469-0.193-0.869-0.193h-0.452l-0.252,0.034c-0.126,0.047-0.189,0.191-0.189,0.433L20.187,41.118z"/>
<path fill="#FFFFFF" d="M25.324,44.312c0,0.542,0.043,0.909,0.13,1.101c0.086,0.192,0.257,0.304,0.512,0.334
	c0.104,0.009,0.156,0.057,0.156,0.143c0,0.087-0.042,0.13-0.126,0.13c-0.027,0-0.078-0.005-0.152-0.013
	c-0.212-0.021-0.417-0.033-0.615-0.033c-0.166,0-0.313,0.004-0.441,0.013l-0.311,0.036l-0.249,0.03
	c-0.069,0.009-0.117,0.013-0.144,0.013c-0.089,0-0.133-0.04-0.133-0.12c0-0.063,0.025-0.105,0.074-0.125
	c0.169-0.058,0.286-0.138,0.351-0.24c0.064-0.102,0.097-0.257,0.097-0.466v-0.405l0.004-0.168v-3.1c0-0.343-0.037-0.575-0.111-0.694
	c-0.121-0.189-0.319-0.305-0.594-0.347c-0.101-0.016-0.152-0.066-0.152-0.149c0-0.084,0.035-0.126,0.104-0.126
	c0.027,0,0.071,0.005,0.133,0.015c0.19,0.021,0.398,0.031,0.625,0.031c0.249,0,0.55-0.018,0.905-0.053
	c0.416-0.036,0.703-0.054,0.861-0.054c0.468,0,0.855,0.149,1.164,0.446c0.308,0.296,0.462,0.67,0.462,1.12
	c0,0.287-0.068,0.547-0.205,0.78s-0.325,0.409-0.563,0.53c-0.05,0.023-0.073,0.053-0.071,0.087c0.002,0.027,0.015,0.06,0.037,0.099
	c0.022,0.042,0.056,0.11,0.1,0.203l0.33,0.679l0.382,0.79c0.131,0.268,0.248,0.452,0.351,0.555c0.103,0.103,0.224,0.154,0.362,0.154
	c0.057,0,0.11-0.006,0.16-0.017c0.03-0.008,0.057-0.012,0.082-0.012c0.044,0,0.066,0.033,0.066,0.098
	c0,0.082-0.101,0.175-0.302,0.282s-0.379,0.161-0.535,0.161c-0.255,0-0.49-0.144-0.705-0.433s-0.495-0.839-0.838-1.649
	c-0.134-0.318-0.244-0.519-0.33-0.602c-0.086-0.083-0.227-0.125-0.421-0.125h-0.229l-0.167,0.029
	c-0.037,0.023-0.055,0.093-0.055,0.208V44.312z M25.324,40.958v1.491c0,0.187,0.02,0.305,0.061,0.354
	c0.041,0.048,0.138,0.072,0.291,0.072c0.439,0,0.711-0.01,0.816-0.029c0.105-0.02,0.203-0.078,0.294-0.175
	c0.18-0.19,0.27-0.453,0.27-0.786c0-0.431-0.122-0.79-0.365-1.072c-0.243-0.284-0.552-0.426-0.927-0.426
	c-0.167,0-0.283,0.041-0.346,0.122C25.355,40.591,25.324,40.74,25.324,40.958"/>
<path fill="#FFFFFF" d="M31.678,41.102l1.951,2.542l0.125,0.162c0.167,0.22,0.278,0.329,0.334,0.329c0.052,0,0.08-0.088,0.085-0.268
	c0.022-0.632,0.033-1.238,0.033-1.817c0-0.675-0.058-1.132-0.175-1.372c-0.117-0.238-0.346-0.371-0.687-0.398
	c-0.082-0.004-0.122-0.038-0.122-0.101c0-0.075,0.036-0.113,0.107-0.113c0.089,0,0.232,0.018,0.429,0.054
	c0.128,0.025,0.234,0.038,0.318,0.038c0.17,0,0.44-0.035,0.809-0.107c0.049-0.009,0.085-0.015,0.107-0.015
	c0.079,0,0.118,0.042,0.118,0.127c0,0.073-0.04,0.116-0.118,0.132c-0.317,0.07-0.476,0.4-0.476,0.989v0.209l-0.053,2.693
	l-0.015,0.373l-0.004,0.477l0.004,0.326l0.015,0.541c0,0.078-0.025,0.116-0.075,0.116c-0.044-0.003-0.089-0.037-0.136-0.099
	l-3.357-4.337c-0.059-0.078-0.099-0.117-0.122-0.117c-0.059,0-0.088,0.066-0.088,0.197l-0.003,0.122v1.66
	c0,0.89,0.038,1.486,0.114,1.786c0.081,0.321,0.32,0.502,0.719,0.544c0.073,0.008,0.11,0.046,0.11,0.111
	c0,0.09-0.039,0.135-0.115,0.135c-0.03,0-0.078-0.005-0.145-0.017c-0.208-0.041-0.438-0.061-0.69-0.061
	c-0.25,0-0.473,0.021-0.667,0.063c-0.087,0.019-0.15,0.028-0.189,0.028c-0.067,0-0.1-0.035-0.1-0.106
	c0-0.058,0.036-0.099,0.107-0.123c0.18-0.058,0.312-0.18,0.394-0.366c0.083-0.187,0.125-0.458,0.125-0.812l0.026-1.016v-1.854
	c0-0.877-0.28-1.34-0.839-1.386c-0.077-0.009-0.115-0.047-0.115-0.116c0-0.085,0.042-0.128,0.126-0.128l0.256,0.021l0.157-0.006
	c0.193,0,0.399-0.011,0.621-0.035c0.082-0.007,0.15-0.011,0.205-0.011c0.076,0,0.136,0.02,0.18,0.058s0.138,0.156,0.28,0.352
	l0.253,0.347C31.598,40.992,31.658,41.075,31.678,41.102"/>
<path fill="#FFFFFF" d="M38.67,40.596l1.682,4.467c0.083,0.224,0.181,0.391,0.294,0.502s0.258,0.187,0.438,0.225
	c0.044,0.008,0.066,0.051,0.066,0.128c0,0.081-0.029,0.12-0.085,0.116c-0.032-0.004-0.079-0.012-0.141-0.027
	c-0.19-0.042-0.496-0.064-0.918-0.064c-0.424,0-0.712,0.023-0.865,0.072c-0.037,0.013-0.069,0.02-0.096,0.02
	c-0.069,0-0.104-0.042-0.104-0.125c0-0.039,0.028-0.069,0.083-0.088c0.119-0.042,0.218-0.116,0.296-0.218
	c0.079-0.103,0.118-0.212,0.118-0.329c0-0.158-0.107-0.511-0.321-1.057c-0.066-0.167-0.14-0.262-0.219-0.285
	c-0.08-0.023-0.363-0.035-0.849-0.035h-0.5l-0.332,0.064c-0.091,0.05-0.194,0.24-0.31,0.568l-0.114,0.33
	c-0.035,0.097-0.051,0.193-0.051,0.29c0,0.36,0.217,0.568,0.651,0.626c0.093,0.016,0.14,0.058,0.137,0.125
	c-0.005,0.08-0.05,0.12-0.134,0.12c-0.044,0-0.107-0.009-0.189-0.027c-0.164-0.033-0.31-0.049-0.438-0.049
	c-0.116,0-0.305,0.011-0.564,0.033c-0.193,0.018-0.313,0.028-0.36,0.028c-0.069,0-0.104-0.036-0.104-0.11
	c0-0.061,0.034-0.106,0.104-0.134c0.133-0.05,0.24-0.14,0.32-0.269c0.081-0.128,0.199-0.4,0.357-0.817l1.008-2.694
	c0.082-0.211,0.138-0.358,0.17-0.438l0.343-0.82l0.178-0.398v0.012c0.078-0.221,0.131-0.332,0.158-0.332
	c0.039,0,0.107,0.122,0.202,0.367L38.67,40.596z M38.811,43.278l-0.482-1.309c-0.116-0.315-0.198-0.473-0.247-0.473
	c-0.03,0-0.084,0.103-0.162,0.306l-0.07,0.179l-0.431,1.141l-0.041,0.104c-0.018,0.046-0.026,0.085-0.026,0.115
	c0,0.097,0.088,0.145,0.265,0.145h1.09c0.093,0,0.14-0.03,0.14-0.092c0-0.012-0.006-0.035-0.019-0.069L38.811,43.278z"/>
<path fill="#FFFFFF" d="M44.295,41.142v3.235c0,0.483,0.06,0.827,0.181,1.029c0.121,0.203,0.334,0.316,0.639,0.339
	c0.089,0.009,0.133,0.06,0.133,0.155c0,0.07-0.038,0.105-0.114,0.105h-0.092l-0.276-0.02l-0.461-0.032
	c-0.037-0.003-0.087-0.005-0.148-0.005c-0.142,0-0.27,0.003-0.383,0.011l-0.815,0.07c-0.086,0.014-0.146,0.021-0.177,0.021
	c-0.076,0-0.113-0.04-0.111-0.117c0.002-0.063,0.015-0.103,0.037-0.123c0.022-0.02,0.07-0.032,0.144-0.035
	c0.192-0.015,0.34-0.098,0.445-0.245c0.104-0.147,0.157-0.349,0.157-0.605l-0.004-0.203v-3.831c0-0.225-0.105-0.338-0.315-0.338
	c-0.493,0-0.83,0.042-1.01,0.123c-0.131,0.065-0.218,0.137-0.261,0.215c-0.043,0.078-0.102,0.273-0.176,0.587l-0.03,0.122
	c-0.027,0.117-0.07,0.174-0.126,0.174c-0.083,0-0.121-0.044-0.116-0.132c0.002-0.078,0.015-0.187,0.037-0.33l0.038-0.375
	l0.044-0.382l0.027-0.261c0.009-0.111,0.062-0.167,0.155-0.167c0.024,0,0.066,0.003,0.125,0.011
	c0.096,0.007,0.233,0.011,0.411,0.011l0.754,0.005l0.899,0.018c0.58,0,1.194-0.025,1.843-0.077c0.128-0.01,0.21-0.015,0.248-0.015
	c0.136,0,0.207,0.068,0.214,0.205l0.018,0.31c0.002,0.046,0.015,0.164,0.036,0.351c0.016,0.151,0.024,0.274,0.024,0.368
	c0,0.093-0.033,0.14-0.098,0.14c-0.056,0-0.095-0.054-0.117-0.162c-0.052-0.267-0.151-0.459-0.299-0.577
	c-0.147-0.118-0.36-0.177-0.64-0.177c-0.376,0-0.61,0.034-0.703,0.102C44.341,40.708,44.295,40.875,44.295,41.142"/>
<path fill="#FFFFFF" d="M48.726,44.661l0.029,0.43c0.029,0.225,0.102,0.395,0.216,0.511s0.264,0.174,0.449,0.174
	c0.121,0,0.181,0.043,0.181,0.129c0,0.086-0.08,0.13-0.24,0.13c-0.069,0-0.167-0.009-0.296-0.026c-0.32-0.044-0.58-0.065-0.78-0.065
	c-0.247,0-0.441,0.016-0.584,0.048c-0.123,0.029-0.212,0.043-0.266,0.043c-0.055,0-0.089-0.03-0.104-0.09l-0.007-0.036l0.108-0.103
	c0.179-0.073,0.297-0.165,0.355-0.273c0.058-0.108,0.087-0.288,0.087-0.536l0.004-0.384v-3.44c0-0.265-0.04-0.452-0.118-0.565
	c-0.079-0.113-0.223-0.186-0.433-0.221c-0.126-0.024-0.207-0.047-0.243-0.069c-0.035-0.022-0.053-0.061-0.053-0.117
	c0-0.079,0.029-0.119,0.088-0.119c0.044,0.005,0.111,0.02,0.199,0.046c0.088,0.03,0.237,0.045,0.445,0.045
	c0.138,0,0.309-0.01,0.513-0.031l0.269-0.024c0.253-0.025,0.447-0.037,0.583-0.037c0.081,0,0.122,0.037,0.122,0.111
	c0,0.054-0.006,0.09-0.018,0.108c-0.013,0.019-0.043,0.032-0.092,0.04c-0.176,0.035-0.29,0.092-0.34,0.172s-0.075,0.243-0.075,0.491
	V44.661z"/>
<path fill="#FFFFFF" d="M53.334,40.005c0.77,0,1.391,0.26,1.864,0.78s0.71,1.201,0.71,2.042c0,0.92-0.244,1.699-0.732,2.336
	c-0.476,0.622-1.132,0.934-1.968,0.934c-0.799,0-1.437-0.271-1.916-0.811c-0.478-0.542-0.717-1.266-0.717-2.174
	c0-0.39,0.061-0.777,0.181-1.162c0.121-0.384,0.285-0.706,0.492-0.965c0.239-0.309,0.542-0.549,0.911-0.722
	C52.528,40.091,52.919,40.005,53.334,40.005 M53.071,40.325c-0.496,0-0.884,0.213-1.163,0.64c-0.279,0.427-0.418,1.019-0.418,1.779
	c0,0.899,0.175,1.629,0.525,2.19s0.806,0.842,1.366,0.842c0.506,0,0.911-0.232,1.214-0.697c0.303-0.465,0.455-1.086,0.455-1.866
	c0-0.448-0.07-0.885-0.211-1.311s-0.328-0.765-0.563-1.016C53.937,40.512,53.535,40.325,53.071,40.325"/>
<path fill="#FFFFFF" d="M59.054,41.102l1.95,2.542l0.125,0.162c0.167,0.22,0.278,0.329,0.335,0.329c0.051,0,0.08-0.088,0.084-0.268
	c0.022-0.632,0.033-1.238,0.033-1.817c0-0.675-0.059-1.132-0.175-1.372c-0.117-0.238-0.346-0.371-0.687-0.398
	c-0.081-0.004-0.122-0.038-0.122-0.101c0-0.075,0.036-0.113,0.107-0.113c0.088,0,0.231,0.018,0.428,0.054
	c0.128,0.025,0.234,0.038,0.318,0.038c0.17,0,0.439-0.035,0.809-0.107c0.049-0.009,0.084-0.015,0.107-0.015
	c0.078,0,0.118,0.042,0.118,0.127c0,0.073-0.039,0.116-0.118,0.132c-0.317,0.07-0.476,0.4-0.476,0.989v0.209l-0.052,2.693
	l-0.016,0.373l-0.004,0.477l0.004,0.326l0.016,0.541c0,0.078-0.025,0.116-0.075,0.116c-0.045-0.003-0.09-0.037-0.137-0.099
	l-3.356-4.337c-0.059-0.078-0.1-0.117-0.122-0.117c-0.059,0-0.088,0.066-0.088,0.197l-0.003,0.122v1.66
	c0,0.89,0.038,1.486,0.114,1.786c0.082,0.321,0.321,0.502,0.719,0.544c0.074,0.008,0.111,0.046,0.111,0.111
	c0,0.09-0.038,0.135-0.115,0.135c-0.03,0-0.078-0.005-0.145-0.017c-0.208-0.041-0.438-0.061-0.69-0.061
	c-0.25,0-0.472,0.021-0.667,0.063c-0.086,0.019-0.15,0.028-0.189,0.028c-0.067,0-0.101-0.035-0.101-0.106
	c0-0.058,0.036-0.099,0.107-0.123c0.18-0.058,0.312-0.18,0.395-0.366c0.083-0.187,0.124-0.458,0.124-0.812l0.026-1.016v-1.854
	c0-0.877-0.28-1.34-0.839-1.386c-0.076-0.009-0.114-0.047-0.114-0.116c0-0.085,0.042-0.128,0.126-0.128l0.257,0.021l0.156-0.006
	c0.194,0,0.4-0.011,0.621-0.035c0.082-0.007,0.15-0.011,0.205-0.011c0.076,0,0.136,0.02,0.181,0.058
	c0.043,0.039,0.137,0.156,0.279,0.352l0.254,0.347C58.975,40.992,59.034,41.075,59.054,41.102"/>
<path fill="#FFFFFF" d="M66.046,40.596l1.682,4.467c0.083,0.224,0.181,0.391,0.294,0.502c0.113,0.112,0.259,0.187,0.438,0.225
	c0.044,0.008,0.066,0.051,0.066,0.128c0,0.081-0.028,0.12-0.085,0.116c-0.032-0.004-0.079-0.012-0.141-0.027
	c-0.19-0.042-0.496-0.064-0.918-0.064c-0.424,0-0.712,0.023-0.865,0.072c-0.037,0.013-0.069,0.02-0.096,0.02
	c-0.069,0-0.104-0.042-0.104-0.125c0-0.039,0.027-0.069,0.082-0.088c0.12-0.042,0.218-0.116,0.297-0.218
	c0.079-0.103,0.118-0.212,0.118-0.329c0-0.158-0.107-0.511-0.321-1.057c-0.066-0.167-0.14-0.262-0.219-0.285
	c-0.08-0.023-0.363-0.035-0.848-0.035h-0.501l-0.332,0.064c-0.091,0.05-0.194,0.24-0.309,0.568l-0.114,0.33
	c-0.035,0.097-0.052,0.193-0.052,0.29c0,0.36,0.217,0.568,0.651,0.626c0.094,0.016,0.14,0.058,0.137,0.125
	c-0.005,0.08-0.05,0.12-0.134,0.12c-0.045,0-0.108-0.009-0.189-0.027c-0.164-0.033-0.31-0.049-0.438-0.049
	c-0.117,0-0.305,0.011-0.565,0.033c-0.193,0.018-0.313,0.028-0.36,0.028c-0.069,0-0.104-0.036-0.104-0.11
	c0-0.061,0.035-0.106,0.104-0.134c0.133-0.05,0.24-0.14,0.32-0.269c0.08-0.128,0.199-0.4,0.357-0.817l1.009-2.694
	c0.081-0.211,0.138-0.358,0.17-0.438l0.343-0.82l0.178-0.398v0.012c0.078-0.221,0.131-0.332,0.158-0.332
	c0.039,0,0.107,0.122,0.202,0.367L66.046,40.596z M66.187,43.278l-0.483-1.309c-0.116-0.315-0.198-0.473-0.247-0.473
	c-0.029,0-0.083,0.103-0.162,0.306l-0.07,0.179l-0.43,1.141l-0.041,0.104c-0.018,0.046-0.026,0.085-0.026,0.115
	c0,0.097,0.088,0.145,0.266,0.145h1.09c0.093,0,0.14-0.03,0.14-0.092c0-0.012-0.006-0.035-0.019-0.069L66.187,43.278z"/>
<path fill="#FFFFFF" d="M70.855,44.659c0,0.539,0.056,0.84,0.166,0.906c0.062,0.039,0.182,0.058,0.362,0.058
	c0.836,0,1.429-0.285,1.778-0.855c0.109-0.173,0.176-0.259,0.204-0.259c0.045,0,0.068,0.061,0.068,0.18
	c0,0.363-0.104,0.686-0.311,0.971c-0.18,0.251-0.425,0.376-0.736,0.376c-0.064,0-0.181-0.008-0.351-0.024
	c-0.045-0.004-0.193-0.014-0.444-0.031l-0.402-0.024c-0.136-0.008-0.29-0.012-0.462-0.012c-0.286,0-0.594,0.022-0.924,0.068
	c-0.101,0.016-0.169,0.023-0.203,0.023c-0.072,0-0.107-0.04-0.107-0.12c0-0.052,0.032-0.089,0.097-0.109
	c0.158-0.05,0.268-0.15,0.328-0.3c0.061-0.149,0.091-0.391,0.091-0.724v-3.606c0-0.458-0.164-0.717-0.493-0.779l-0.223-0.041
	c-0.093-0.02-0.14-0.065-0.14-0.135c0-0.094,0.037-0.14,0.111-0.14c0.025,0,0.061,0.007,0.107,0.022
	c0.035,0,0.083,0.008,0.145,0.023l0.159,0.015c0.151,0.021,0.263,0.031,0.337,0.031c0.119,0,0.308-0.018,0.567-0.055
	c0.192-0.025,0.389-0.037,0.589-0.037c0.148,0,0.223,0.042,0.223,0.128c0,0.073-0.054,0.112-0.16,0.116
	c-0.25,0.024-0.375,0.223-0.375,0.599V44.659z"/>
<path fill="#FFFFFF" d="M80.779,40.072c0.018-0.004,0.046,0,0.085,0.012c0.042,0.008,0.14,0.016,0.292,0.025l0.393,0.024
	l0.363-0.017c0.124-0.011,0.232-0.022,0.326-0.033c0.044-0.008,0.085-0.011,0.122-0.011c0.066,0,0.1,0.04,0.1,0.118
	c0,0.062-0.031,0.099-0.093,0.111l-0.141,0.029c-0.192,0.039-0.289,0.277-0.289,0.717l0.004,0.37l-0.007,0.531
	c0,0.825-0.036,1.489-0.105,1.994c-0.07,0.505-0.184,0.893-0.338,1.167c-0.373,0.662-1.003,0.993-1.893,0.993
	c-0.628,0-1.116-0.137-1.463-0.41c-0.471-0.374-0.706-1.098-0.706-2.172l0.04-1.658l-0.011-0.774c0-0.196-0.017-0.334-0.05-0.413
	c-0.034-0.079-0.103-0.147-0.206-0.206c-0.121-0.065-0.257-0.111-0.408-0.139c-0.096-0.015-0.144-0.059-0.144-0.13
	c0-0.076,0.041-0.114,0.125-0.114c0.027,0,0.078,0.004,0.151,0.011c0.313,0.034,0.554,0.05,0.723,0.05
	c0.241,0,0.508-0.014,0.801-0.044c0.118-0.011,0.203-0.017,0.255-0.017c0.127,0,0.192,0.042,0.192,0.126
	c0,0.048-0.01,0.08-0.03,0.098s-0.067,0.036-0.141,0.051c-0.151,0.035-0.252,0.1-0.304,0.197c-0.052,0.096-0.084,0.283-0.097,0.561
	l-0.059,1.077l0.007,0.763c0,0.69,0.031,1.182,0.094,1.475c0.063,0.293,0.193,0.543,0.39,0.751c0.299,0.317,0.681,0.474,1.146,0.474
	c0.476,0,0.861-0.162,1.154-0.485c0.197-0.22,0.337-0.542,0.419-0.966c0.083-0.425,0.124-1.032,0.124-1.823v-0.347l-0.019-0.879
	c-0.015-0.266-0.086-0.473-0.214-0.619c-0.127-0.146-0.301-0.219-0.519-0.219c-0.096,0-0.144-0.045-0.144-0.134
	C80.709,40.114,80.733,40.076,80.779,40.072"/>
<path fill="#FFFFFF" d="M84.094,44.6c0.064,0,0.146,0.062,0.248,0.186l0.217,0.274l0.144,0.175c0.022,0.039,0.033,0.081,0.033,0.128
	c0,0.066-0.054,0.157-0.162,0.274c-0.057,0.054-0.127,0.134-0.21,0.238c-0.118,0.148-0.208,0.222-0.27,0.222
	c-0.049,0-0.116-0.051-0.199-0.152c-0.113-0.143-0.201-0.246-0.262-0.308c-0.121-0.128-0.181-0.227-0.181-0.297
	c0-0.065,0.053-0.153,0.159-0.262c0.054-0.054,0.133-0.147,0.236-0.279C83.952,44.666,84.035,44.6,84.094,44.6"/>
<path fill="#FFFFFF" d="M88.615,40.596l1.682,4.467c0.083,0.224,0.182,0.391,0.294,0.502c0.112,0.112,0.258,0.187,0.438,0.225
	c0.044,0.008,0.066,0.051,0.066,0.128c0,0.081-0.029,0.12-0.085,0.116c-0.032-0.004-0.079-0.012-0.141-0.027
	c-0.19-0.042-0.496-0.064-0.917-0.064c-0.424,0-0.713,0.023-0.866,0.072c-0.037,0.013-0.069,0.02-0.096,0.02
	c-0.069,0-0.103-0.042-0.103-0.125c0-0.039,0.027-0.069,0.082-0.088c0.119-0.042,0.218-0.116,0.296-0.218
	c0.079-0.103,0.118-0.212,0.118-0.329c0-0.158-0.107-0.511-0.321-1.057c-0.066-0.167-0.139-0.262-0.219-0.285
	c-0.08-0.023-0.363-0.035-0.849-0.035h-0.5l-0.332,0.064c-0.091,0.05-0.194,0.24-0.309,0.568l-0.114,0.33
	c-0.034,0.097-0.051,0.193-0.051,0.29c0,0.36,0.216,0.568,0.651,0.626c0.094,0.016,0.14,0.058,0.137,0.125
	c-0.005,0.08-0.05,0.12-0.134,0.12c-0.044,0-0.108-0.009-0.189-0.027c-0.164-0.033-0.31-0.049-0.438-0.049
	c-0.116,0-0.304,0.011-0.564,0.033c-0.194,0.018-0.314,0.028-0.361,0.028c-0.069,0-0.104-0.036-0.104-0.11
	c0-0.061,0.035-0.106,0.104-0.134c0.133-0.05,0.24-0.14,0.32-0.269c0.08-0.128,0.199-0.4,0.357-0.817l1.008-2.694
	c0.081-0.211,0.138-0.358,0.17-0.438l0.344-0.82l0.177-0.398v0.012c0.079-0.221,0.131-0.332,0.158-0.332
	c0.04,0,0.106,0.122,0.202,0.367L88.615,40.596z M88.756,43.278l-0.483-1.309c-0.115-0.315-0.197-0.473-0.247-0.473
	c-0.029,0-0.083,0.103-0.162,0.306l-0.069,0.179l-0.431,1.141l-0.041,0.104c-0.017,0.046-0.025,0.085-0.025,0.115
	c0,0.097,0.088,0.145,0.265,0.145h1.09c0.093,0,0.14-0.03,0.14-0.092c0-0.012-0.006-0.035-0.018-0.069L88.756,43.278z"/>
<path fill="#FFFFFF" d="M92.782,44.6c0.064,0,0.146,0.062,0.247,0.186l0.218,0.274l0.144,0.175c0.022,0.039,0.033,0.081,0.033,0.128
	c0,0.066-0.054,0.157-0.162,0.274c-0.057,0.054-0.127,0.134-0.21,0.238c-0.118,0.148-0.208,0.222-0.27,0.222
	c-0.049,0-0.116-0.051-0.199-0.152c-0.113-0.143-0.201-0.246-0.262-0.308c-0.121-0.128-0.181-0.227-0.181-0.297
	c0-0.065,0.053-0.153,0.159-0.262c0.054-0.054,0.133-0.147,0.236-0.279C92.641,44.666,92.724,44.6,92.782,44.6"/>
<path fill="#FFFFFF" d="M100.584,44.6c0.064,0,0.146,0.062,0.247,0.186l0.218,0.274l0.144,0.175
	c0.022,0.039,0.033,0.081,0.033,0.128c0,0.066-0.054,0.157-0.162,0.274c-0.057,0.054-0.127,0.134-0.21,0.238
	c-0.118,0.148-0.208,0.222-0.27,0.222c-0.049,0-0.116-0.051-0.2-0.152c-0.113-0.143-0.2-0.246-0.262-0.308
	c-0.121-0.128-0.181-0.227-0.181-0.297c0-0.065,0.053-0.153,0.159-0.262c0.054-0.054,0.132-0.147,0.236-0.279
	C100.443,44.666,100.525,44.6,100.584,44.6"/>
<path fill="#FFFFFF" d="M96.222,41.118v0.928c0,0.265,0.017,0.434,0.05,0.505s0.114,0.106,0.243,0.106l0.111-0.005l0.164-0.006
	h0.316c0.245,0,0.434-0.157,0.568-0.472l0.085-0.209c0.022-0.051,0.06-0.078,0.112-0.082c0.055-0.004,0.083,0.035,0.083,0.117
	c0,0.023-0.004,0.087-0.012,0.192c-0.005,0.074-0.008,0.136-0.008,0.187c0,0.093,0.011,0.31,0.035,0.647
	c0.016,0.223,0.023,0.417,0.023,0.584l0.003,0.216c0,0.043-0.003,0.072-0.011,0.088c-0.009,0.016-0.03,0.025-0.06,0.029
	c-0.063,0.004-0.103-0.05-0.117-0.164c-0.032-0.244-0.106-0.431-0.223-0.559c-0.065-0.069-0.144-0.114-0.236-0.134
	c-0.093-0.02-0.267-0.029-0.522-0.029h-0.252c-0.119,0-0.2,0.02-0.244,0.06c-0.043,0.041-0.072,0.124-0.087,0.25
	c-0.015,0.143-0.022,0.367-0.022,0.675v0.386c0,0.399,0.027,0.688,0.081,0.865c0.042,0.127,0.091,0.213,0.148,0.259
	c0.057,0.046,0.144,0.069,0.262,0.069c1,0,1.653-0.352,1.961-1.057c0.017-0.035,0.032-0.054,0.045-0.058
	c0.025-0.003,0.048,0.007,0.069,0.033c0.021,0.025,0.032,0.056,0.032,0.091c0,0.284-0.065,0.559-0.196,0.824
	c-0.107,0.226-0.243,0.387-0.406,0.482c-0.163,0.096-0.377,0.144-0.646,0.144c-0.157,0-0.332-0.012-0.524-0.035l-0.428-0.047
	c-0.157-0.016-0.37-0.024-0.638-0.024c-0.18,0-0.453,0.011-0.819,0.031c-0.101,0.01-0.174,0.015-0.218,0.015
	c-0.059,0-0.091-0.035-0.096-0.105c-0.002-0.054,0.025-0.095,0.081-0.124c0.14-0.061,0.234-0.126,0.285-0.196
	c0.05-0.069,0.089-0.193,0.119-0.374c0.027-0.149,0.041-0.355,0.041-0.616v-3.378c0-0.319-0.045-0.535-0.134-0.647
	c-0.089-0.113-0.274-0.192-0.555-0.239c-0.066-0.011-0.1-0.052-0.1-0.123c0-0.071,0.041-0.106,0.122-0.106
	c0.017,0,0.054,0.004,0.111,0.01c0.044,0.003,0.104,0.005,0.181,0.005l0.373,0.015l1.4,0.015c0.806,0,1.302-0.013,1.489-0.04
	c0.02-0.004,0.037-0.006,0.052-0.006c0.071,0,0.107,0.048,0.107,0.146c0,0.066,0.007,0.183,0.021,0.35
	c0.019,0.251,0.028,0.432,0.028,0.541c0,0.217-0.048,0.331-0.144,0.338c-0.046,0.004-0.07-0.061-0.07-0.193
	c0-0.285-0.089-0.492-0.269-0.621c-0.179-0.129-0.468-0.193-0.869-0.193h-0.452l-0.252,0.034c-0.125,0.047-0.189,0.191-0.189,0.433
	L96.222,41.118z"/>
<path fill="#FFFFFF" d="M167.592,15.601c-1.052,0.189-1.74,0.393-2.064,0.611c0,0.136,0.082,0.203,0.245,0.203
	c0.57,0.135,1.14,0.204,1.709,0.204c1.384,0,2.511-0.393,3.379-1.181c0.326-0.625,0.449-1.153,0.367-1.588
	c-0.354-0.461-0.91-0.787-1.669-0.977c-0.653-0.189-1.303-0.367-1.955-0.529c0.435-0.516,0.814-0.882,1.14-1.1
	c0.162-0.135,0.326-0.204,0.49-0.204c0.162,0,0.392,0.095,0.691,0.285c0.298,0.189,0.516,0.285,0.652,0.285
	c0.434-0.163,0.651-0.651,0.651-1.466c-0.19-0.407-0.774-0.61-1.751-0.61c-2.09,0.95-3.326,2.09-3.705,3.42
	c0.377,0.407,0.991,0.733,1.84,0.977c0.85,0.245,1.423,0.502,1.72,0.773C169.009,15.167,168.429,15.466,167.592,15.601"/>
<path fill="#FFFFFF" d="M189.344,9.372c0.055-0.109,0.231-0.462,0.529-1.06c0.19-0.406,0.258-0.747,0.204-1.018
	c-1.466-0.951-2.537-1.521-3.216-1.711l-1.1,2.078c1.005,0.734,2.117,1.359,3.338,1.875L189.344,9.372z"/>
<path fill="#FFFFFF" d="M206.932,25.373c-0.217,0-0.449,0.189-0.692,0.569c-0.327,0.516-0.543,0.8-0.652,0.855l-2.687-1.343h-0.245
	c-0.245,0.324-0.475,0.638-0.692,0.936c-0.299,0.407-0.449,0.76-0.449,1.059l2.606,1.71c0.353,0.055,0.651-0.109,0.896-0.489
	c0.352-0.434,0.598-0.694,0.732-0.773c1.385,0.735,2.321,1.201,2.81,1.392l1.343-1.999c-0.978-0.68-1.75-1.169-2.321-1.47
	C207.339,25.521,207.122,25.373,206.932,25.373"/>
<path fill="#FFFFFF" d="M221.085,4.709c0.107,0.922,0.445,3.418,1.011,7.488c0.431,3.039,0.673,5.562,0.728,7.57l-0.124,0.489
	h-6.768h-0.531h-5.27c-0.203-1.123-0.591-2.446-1.175-3.977c-0.866-1.659-1.488-2.652-1.867-2.979l-1.217,3.109l1.384,2.373
	c0,0.109,0.033,0.274,0.102,0.492c0.067,0.218,0.102,0.382,0.102,0.491c0,0.191-0.068,0.354-0.204,0.491h-8.221h-0.573h-5.228
	c-0.203-1.12-0.591-2.438-1.175-3.963c-0.865-1.655-1.487-2.646-1.865-2.971l-1.218,3.099l1.384,2.367
	c0,0.108,0.035,0.272,0.102,0.49c0.066,0.217,0.103,0.38,0.103,0.489c0,0.191-0.068,0.354-0.204,0.49h-8.221h-0.573h-5.147
	l-0.527-17.781l-0.284-0.244l-1.941,2.319l-0.121,0.732c0.456,6.403,0.817,11.178,1.086,14.325c-0.19,0.272-0.503,0.461-0.936,0.569
	c-0.028,0-0.408,0.054-1.139,0.163c-3.255,0.17-4.924,0.254-5.005,0.254c-1.79,0-3.255-0.203-4.394-0.609
	c-1.031-0.352-1.546-1.205-1.546-2.559c0-0.298,0.041-0.812,0.125-1.544c0.083-0.731,0.11-1.246,0.084-1.544h-0.245
	c-0.951,1.166-1.575,2.641-1.874,4.428c0,1.653,0.549,2.851,1.648,3.595c1.098,0.745,3.354,1.118,6.771,1.118
	c2.439,0,5.082-0.171,7.93-0.509h0.447h5.067h0.573h10.704h0.554h5.064h0.573h10.705h0.554h5.105h0.531h8.104
	c0.405-0.353,0.611-1.017,0.611-1.993c0-6.644-0.269-12.935-0.806-18.874L221.085,4.709z"/>
<path fill="#FFFFFF" d="M251.929,25.373c-0.218,0-0.449,0.189-0.693,0.569c-0.327,0.516-0.544,0.8-0.653,0.855l-2.691-1.343h-0.245
	c-0.245,0.324-0.474,0.638-0.692,0.936c-0.3,0.407-0.449,0.76-0.449,1.059l2.609,1.71c0.353,0.055,0.652-0.109,0.896-0.489
	c0.354-0.434,0.598-0.694,0.735-0.773c1.385,0.735,2.323,1.201,2.812,1.392l1.345-1.999c-0.978-0.68-1.753-1.169-2.323-1.47
	C252.337,25.521,252.119,25.373,251.929,25.373"/>
<path fill="#FFFFFF" d="M252.088,13.301l-1.225,3.109l1.378,2.373c0,0.109,0.035,0.274,0.102,0.492c0.068,0.218,0.1,0.382,0.1,0.491
	c0,0.191-0.067,0.354-0.202,0.491h-8.256h-0.532h-4.796c-0.161-0.954-0.519-1.792-1.079-2.51c-0.3-0.408-0.584-0.83-0.855-1.265
	c-0.381-0.516-0.802-0.87-1.263-1.061l-1.139,2.493c0.543,0.682,1.073,1.361,1.588,2.042c0.569,0.79,0.909,1.553,1.018,2.288
	c-0.544,1.334-1.507,2.546-2.891,3.636c-1.466,1.198-2.892,1.798-4.276,1.798c-0.95,0-2.552-0.538-4.805-1.614
	c-0.081,0.028-0.122,0.15-0.122,0.367c1.736,2.641,3.732,3.96,5.986,3.96c1.628,0,3.202-0.72,4.723-2.162
	c1.331-1.305,2.28-2.814,2.85-4.528c0.082-0.238,0.145-0.483,0.2-0.731h4.861h0.532h7.985c0.488-0.109,0.984-0.231,1.488-0.367
	c0.502-0.136,0.875-0.381,1.121-0.735c0.217-0.517,0.325-1.087,0.325-1.713c0-0.98-0.313-2.271-0.939-3.876
	C253.095,14.62,252.469,13.627,252.088,13.301"/>
<path fill="#FFFFFF" d="M261.17,3.366c-0.245-0.19-0.367-0.611-0.367-1.262l-2.367,3.335c0.028,0.814,0.142,3.499,0.339,8.054
	c0.142,3.309,0.212,6.021,0.212,8.136l0.202,1.342h0.163c1.241-1.275,2.01-2.142,2.308-2.604
	C261.66,12.069,261.495,6.402,261.17,3.366"/>
<path fill="#FFFFFF" d="M160.133,41.943c-0.276,0.047-0.455,0.195-0.539,0.444c-0.095,0.286-0.024,0.517,0.216,0.695
	c0.155,0.167,0.406,0.202,0.753,0.106c0.263-0.071,0.395-0.196,0.395-0.374c0.06-0.297,0.012-0.528-0.144-0.695
	C160.659,41.955,160.432,41.895,160.133,41.943"/>
<path fill="#FFFFFF" d="M165.07,39.045c-1.185,0.669-1.711,1.416-1.579,2.24c0.023,0,0.233-0.156,0.628-0.467
	c0.263-0.203,0.491-0.305,0.683-0.305c0.095,0,0.185,0.023,0.27,0.072c0.299,0.192,0.586,0.497,0.861,0.916
	c-0.515,0.024-1.029,0.048-1.543,0.072c-0.563,0.06-1.005,0.222-1.329,0.485c-0.275,0.216-0.437,0.503-0.484,0.862l1.36,5.871
	c0.013-0.018,0.049-0.046,0.111-0.087c0.192-0.479,0.287-0.994,0.287-1.544c0-0.539-0.101-1.215-0.305-2.028
	c-0.299-1.185-0.461-1.849-0.485-1.993l0.073-0.054c0.538-0.216,1.37-0.288,2.495-0.216c0.322-0.024,0.641-0.042,0.952-0.053
	c0.359-0.036,0.658-0.114,0.897-0.233c0.011-0.06,0.047-0.174,0.108-0.341c0.059-0.132,0.09-0.24,0.09-0.324
	c0-0.071-0.012-0.138-0.037-0.196C167.309,40.918,166.292,40.027,165.07,39.045"/>
<path fill="#FFFFFF" d="M163.94,48.811l-0.004-0.02C163.925,48.802,163.925,48.811,163.94,48.811"/>
<path fill="#FFFFFF" d="M170.274,41.943c-0.275,0.047-0.455,0.195-0.539,0.444c-0.096,0.286-0.024,0.517,0.216,0.695
	c0.155,0.167,0.406,0.202,0.753,0.106c0.264-0.071,0.395-0.196,0.395-0.374c0.06-0.297,0.011-0.528-0.144-0.695
	C170.801,41.955,170.573,41.895,170.274,41.943"/>
<path fill="#FFFFFF" d="M179.869,46.509c-0.299,0.011-0.891,0.081-1.775,0.211c-0.776,0.105-1.386,0.159-1.828,0.159
	c-1.04,0-1.87-0.257-2.491-0.771c-0.275-0.371-0.413-0.832-0.413-1.382c0-0.251,0.03-0.508,0.089-0.771
	c0.179-0.812,0.734-1.537,1.666-2.169c0.824-0.491,1.643-0.981,2.455-1.471l0.269-1.04l-0.037-0.071
	c-0.311,0.107-0.657,0.257-1.041,0.448c-0.131,0.06-0.461,0.239-0.988,0.539h-0.43c-0.766-0.252-1.185-0.595-1.257-1.025
	c0.299-0.384,0.784-0.576,1.454-0.576c0.06,0,0.431,0.03,1.114,0.093c0.063-0.084,0.063-0.216,0-0.396
	c-0.456-0.658-0.958-0.986-1.509-0.986c-0.132,0-0.269,0.024-0.413,0.071c-0.969,0.514-1.454,1.417-1.454,2.709
	c0.083,0.18,0.244,0.365,0.485,0.556c0.191,0.156,0.388,0.317,0.592,0.485c-0.526,0.657-0.861,1.1-1.004,1.327
	c-0.335,0.515-0.545,1.017-0.628,1.507c-0.061,0.36-0.09,0.701-0.09,1.023c0,1.136,0.342,2.004,1.023,2.602
	c0.611,0.418,1.365,0.628,2.262,0.628c1.125,0,2.185-0.274,3.178-0.822c0.562-0.311,0.886-0.586,0.969-0.824
	C180.066,46.514,180,46.497,179.869,46.509"/>
<path fill="#FFFFFF" d="M182.211,41.943c-0.275,0.047-0.455,0.195-0.539,0.444c-0.096,0.286-0.023,0.517,0.216,0.695
	c0.155,0.167,0.407,0.202,0.753,0.106c0.264-0.071,0.395-0.196,0.395-0.374c0.06-0.297,0.011-0.528-0.144-0.695
	C182.738,41.955,182.51,41.895,182.211,41.943"/>
<path fill="#FFFFFF" d="M185.962,44.803c-0.455,0.083-0.766,0.031-0.935-0.162c-0.012-0.059,0.03-0.191,0.126-0.394
	c0.144-0.156,0.359-0.246,0.646-0.27c0.382-0.048,0.617-0.09,0.7-0.125c0,0.024,0.018-0.06,0.053-0.251
	c0.025-0.083-0.006-0.162-0.089-0.234c-0.646,0-1.047,0.054-1.203,0.162c-0.55,0.396-0.826,0.823-0.826,1.279
	c-0.048,0.145,0.012,0.276,0.18,0.396c0.12,0.084,0.245,0.168,0.376,0.252c-0.168,0.241-0.251,0.445-0.251,0.613
	c0,0.048,0.006,0.097,0.018,0.144c0.993-0.637,1.759-1.077,2.297-1.317c0.143-0.204,0.162-0.367,0.054-0.487L185.962,44.803z"/>
<path fill="#FFFFFF" d="M184.883,42.38l0.089,0.592h0.072c0.55-0.562,0.891-0.944,1.022-1.148c0-3.66-0.072-6.16-0.214-7.5
	c-0.107-0.083-0.161-0.269-0.161-0.556l-1.038,1.472c0.011,0.358,0.059,1.542,0.141,3.552
	C184.853,40.251,184.883,41.448,184.883,42.38"/>
<path fill="#FFFFFF" d="M196.853,33.997c-0.157,0.106-0.314,0.273-0.47,0.493c-0.157,0.222-0.307,0.441-0.451,0.656
	c0.222,3.604,0.388,6.307,0.499,8.102l-0.216,0.324c-0.827,0.694-1.755,1.042-2.787,1.042c-0.203,0-0.4-0.019-0.592-0.054
	c-0.324-0.048-0.619-0.219-0.881-0.513c-0.264-0.293-0.42-0.597-0.467-0.909c-0.061-0.203-0.09-0.418-0.09-0.646
	c0-0.24,0.035-0.552,0.108-0.937c0.083-0.456,0.131-0.762,0.143-0.917c-0.108-0.049-0.203-0.013-0.286,0.107
	c-0.133,0.204-0.252,0.462-0.36,0.773c-0.071,0.264-0.14,0.54-0.206,0.827c-0.066,0.288-0.099,0.563-0.099,0.827
	c0,0.898,0.275,1.576,0.826,2.031c0.479,0.396,1.113,0.594,1.903,0.594c0.707,0,1.36-0.144,1.958-0.431
	c0.527-0.239,0.952-0.575,1.275-1.006c0.359-0.479,0.532-0.976,0.521-1.49l-0.199-8.605L196.853,33.997z"/>
<path fill="#FFFFFF" d="M205.729,36.976c0.024-0.047,0.102-0.202,0.234-0.466c0.083-0.18,0.113-0.33,0.089-0.45
	c-0.646-0.42-1.119-0.671-1.417-0.754l-0.485,0.916c0.442,0.324,0.933,0.6,1.472,0.827L205.729,36.976z"/>
<path fill="#FFFFFF" d="M206.108,38.717l-0.54,1.364l0.612,1.04c0,0.048,0.015,0.121,0.045,0.216
	c0.03,0.096,0.045,0.167,0.045,0.215c0,0.083-0.031,0.156-0.09,0.216h-3.878v0.006c-1.188-0.004-1.79-0.04-1.79-0.107
	c-0.252-0.968-0.432-2.272-0.539-3.912c-0.132-2.177-0.227-3.504-0.287-3.982c-0.06-0.072-0.126-0.048-0.197,0.071
	c-0.168,0.191-0.335,0.39-0.503,0.593c-0.191,0.239-0.286,0.448-0.286,0.627c0,0.096,0.023,0.192,0.072,0.288
	c0.047,0.323,0.161,1.483,0.34,3.481c0.132,1.411,0.312,2.541,0.538,3.391c0.085,0.334,0.479,0.585,1.186,0.753h1.706v-0.004h3.515
	c0.216-0.048,0.435-0.102,0.656-0.162c0.222-0.059,0.387-0.167,0.495-0.323c0.096-0.228,0.143-0.479,0.143-0.754
	c0-0.431-0.137-0.999-0.414-1.704C206.552,39.299,206.275,38.861,206.108,38.717"/>
<path fill="#FFFFFF" d="M219.818,44.032c-0.096,0-0.197,0.083-0.305,0.25c-0.144,0.229-0.24,0.354-0.287,0.377l-1.185-0.592h-0.107
	c-0.108,0.144-0.21,0.282-0.305,0.413c-0.133,0.179-0.198,0.334-0.198,0.466l1.149,0.754c0.156,0.024,0.287-0.047,0.395-0.216
	c0.155-0.191,0.263-0.305,0.323-0.34c0.61,0.324,1.023,0.528,1.239,0.611l0.591-0.88c-0.431-0.299-0.772-0.515-1.023-0.647
	C219.997,44.097,219.902,44.032,219.818,44.032"/>
<path fill="#FFFFFF" d="M225.975,40.675c0.002,0,0.003-0.004,0.006-0.005C225.979,40.664,225.977,40.664,225.975,40.675"/>
<path fill="#FFFFFF" d="M226.997,38.251c0.095,0,0.2-0.111,0.313-0.334c0.114-0.223,0.218-0.351,0.314-0.387
	c0.574,0.301,0.999,0.553,1.274,0.757c0.323-0.334,0.539-0.64,0.647-0.915c-0.539-0.335-0.922-0.593-1.149-0.772
	c-0.155-0.024-0.292,0.06-0.413,0.252c-0.204,0.289-0.324,0.445-0.359,0.469c-0.144-0.073-0.359-0.202-0.646-0.388
	c-0.287-0.187-0.503-0.316-0.647-0.388c-0.286,0.299-0.466,0.556-0.537,0.772c0.395,0.383,0.717,0.652,0.969,0.808
	C226.858,38.209,226.937,38.251,226.997,38.251"/>
<path fill="#FFFFFF" d="M227.821,36.01c0.12-0.157,0.163-0.3,0.125-0.43l-0.968-0.751h-0.108c-0.324,0.394-0.485,0.674-0.485,0.841
	c0.36,0.31,0.718,0.566,1.077,0.769C227.582,36.307,227.703,36.165,227.821,36.01"/>
<path fill="#FFFFFF" d="M231.986,39.598c-0.023,0.036-0.197,0.202-0.521,0.498c-0.239,0.214-0.358,0.398-0.358,0.552
	c0,0.083,0.017,0.166,0.054,0.25c0.012,0.024,0.044,0.089,0.098,0.196c0.054,0.106,0.082,0.189,0.082,0.249
	s-0.019,0.125-0.054,0.196h-1.741l-0.162-0.161c0.071-0.165,0.146-0.347,0.225-0.543c0.077-0.195,0.116-0.375,0.116-0.542
	c0-0.165-0.042-0.32-0.126-0.462c-0.419,0.324-0.73,0.575-0.934,0.754c-0.015,0.036-0.015,0.204,0,0.502
	c0,0.216-0.071,0.354-0.215,0.414c-0.096,0.012-0.264,0.06-0.503,0.144c-0.222,0.077-0.391,0.118-0.509,0.124h-0.763
	c0.084-0.263,0.167-0.528,0.251-0.796c0.083-0.269,0.125-0.492,0.125-0.671c0-0.167-0.029-0.322-0.089-0.465
	c-0.463,0.332-0.79,0.609-0.982,0.835c0.008,0.022,0.012,0.189,0.012,0.507c0,0.239-0.078,0.435-0.233,0.59h-1.981h-0.244h-2.308
	c-0.09-0.494-0.261-1.074-0.516-1.743c-0.382-0.73-0.656-1.167-0.823-1.313l-0.536,1.366l0.61,1.042
	c0,0.049,0.014,0.121,0.045,0.215c0.029,0.097,0.045,0.168,0.045,0.216c0,0.083-0.031,0.156-0.09,0.216h-3.632h-0.246h-2.273
	c-0.035-0.4-0.124-0.793-0.271-1.178c-0.276-0.563-0.432-0.868-0.467-0.917c-0.228-0.334-0.502-0.502-0.826-0.502
	c-0.226,0.047-0.389,0.155-0.485,0.323c-0.562,0.659-0.844,1.317-0.844,1.975c0,0.299,0.06,0.588,0.181,0.862
	c0.06,0.144,0.164,0.266,0.314,0.368c0.15,0.102,0.297,0.194,0.441,0.278l1.154,0.215c-0.635,1.018-1.305,1.652-2.012,1.903
	c-0.287,0.108-0.58,0.162-0.879,0.162c-0.825,0-1.717-0.402-2.674-1.208c-0.024,0-0.036,0.061-0.036,0.18
	c0.275,0.588,0.665,1.093,1.167,1.513c0.573,0.48,1.147,0.721,1.721,0.721c0.658,0,1.309-0.288,1.955-0.862
	c0.829-0.746,1.326-1.624,1.502-2.628h2.333h0.246h4.728h0.242h2.234h0.244h0.275c1.138,0,1.906-0.132,2.299-0.396
	c0.062,0.216,0.21,0.348,0.45,0.396h0.845V42.94c0.518-0.083,0.881-0.233,1.089-0.452c0.203,0.094,0.416,0.187,0.638,0.281
	c0.222,0.095,0.422,0.141,0.601,0.141v0.063h1.114c0.419-0.024,0.76-0.132,1.023-0.323c0.192-0.407,0.288-0.898,0.288-1.473
	c0-0.587-0.096-1.113-0.288-1.58H231.986z M212.954,41.77c-0.073,0.036-0.15,0.054-0.233,0.054c-0.109,0-0.36-0.089-0.755-0.268
	c-0.096-0.047-0.15-0.143-0.161-0.286c-0.024-0.12-0.006-0.221,0.053-0.303c0.084-0.215,0.203-0.322,0.359-0.322
	c0.132,0,0.27,0.071,0.413,0.213c0.145,0.143,0.233,0.286,0.27,0.429c0,0.036,0.015,0.104,0.045,0.205
	C212.975,41.594,212.978,41.687,212.954,41.77"/>
<path fill="#FFFFFF" d="M241.345,38.717l-0.54,1.364l0.611,1.04c0,0.048,0.015,0.121,0.045,0.216
	c0.03,0.096,0.045,0.167,0.045,0.215c0,0.083-0.031,0.156-0.09,0.216h-3.878v0.006c-1.189-0.004-1.79-0.04-1.79-0.107
	c-0.251-0.968-0.431-2.272-0.539-3.912c-0.132-2.177-0.228-3.504-0.288-3.982c-0.06-0.072-0.125-0.048-0.197,0.071
	c-0.168,0.191-0.335,0.39-0.502,0.593c-0.193,0.239-0.287,0.448-0.287,0.627c0,0.096,0.023,0.192,0.072,0.288
	c0.048,0.323,0.162,1.483,0.341,3.481c0.132,1.411,0.312,2.541,0.538,3.391c0.085,0.334,0.48,0.585,1.186,0.753h1.705v-0.004h3.517
	c0.216-0.048,0.435-0.102,0.655-0.162c0.222-0.059,0.387-0.167,0.495-0.323c0.097-0.228,0.145-0.479,0.145-0.754
	c0-0.431-0.139-0.999-0.415-1.704C241.789,39.299,241.514,38.861,241.345,38.717"/>
<path fill="#FFFFFF" d="M240.966,36.976c0.024-0.047,0.102-0.202,0.234-0.466c0.083-0.18,0.114-0.33,0.09-0.45
	c-0.647-0.42-1.119-0.671-1.419-0.754l-0.484,0.916c0.442,0.324,0.933,0.6,1.472,0.827L240.966,36.976z"/>
<path fill="#FFFFFF" d="M250.707,37.772c0.048,0.023,0.089,0.036,0.126,0.036c0.094,0,0.181-0.089,0.259-0.268
	c0.078-0.179,0.165-0.28,0.261-0.305c0.215,0.115,0.431,0.236,0.646,0.362c0.275,0.139,0.509,0.21,0.7,0.21
	c0.228-0.281,0.375-0.6,0.449-0.955c-0.538-0.366-0.957-0.623-1.256-0.77c-0.155-0.048-0.293,0.019-0.413,0.201l-0.287,0.401
	c-0.096-0.036-0.293-0.146-0.592-0.329c-0.24-0.146-0.443-0.237-0.611-0.273L249.432,37l0.127,0.232L250.707,37.772z"/>
<path fill="#FFFFFF" d="M256.691,36.976c0.024-0.047,0.103-0.202,0.234-0.466c0.083-0.18,0.113-0.33,0.089-0.45
	c-0.646-0.42-1.119-0.671-1.419-0.754l-0.484,0.916c0.443,0.324,0.934,0.6,1.472,0.827L256.691,36.976z"/>
<path fill="#FFFFFF" d="M257.07,38.717l-0.541,1.364l0.611,1.04c0,0.048,0.016,0.121,0.045,0.216
	c0.031,0.096,0.045,0.167,0.045,0.215c0,0.083-0.03,0.156-0.09,0.216h-3.644c-0.152-0.963-0.536-1.953-1.157-2.969h-0.162
	c-0.287,0.491-0.472,0.921-0.557,1.291c0.311,0.526,0.551,0.927,0.718,1.202c0.007,0.335,0.007,0.431,0,0.288
	c0,0.133-0.054,0.197-0.162,0.197h-3.429c-0.071-0.418-0.227-0.783-0.467-1.094c-0.131-0.178-0.256-0.364-0.376-0.555
	c-0.167-0.227-0.353-0.383-0.557-0.466l-0.502,1.093c0.24,0.299,0.473,0.597,0.701,0.896c0.251,0.347,0.4,0.682,0.448,1.004
	c-0.239,0.586-0.664,1.118-1.274,1.596c-0.646,0.526-1.274,0.789-1.884,0.789c-0.419,0-1.126-0.231-2.118-0.693
	c-0.036,0.012-0.054,0.066-0.054,0.161c0.766,1.158,1.646,1.737,2.639,1.737c0.718,0,1.413-0.317,2.082-0.95
	c0.587-0.574,1.005-1.236,1.257-1.989c0.047-0.143,0.084-0.251,0.107-0.323h4.775v-0.009h3.493c0.215-0.048,0.434-0.102,0.656-0.162
	c0.222-0.059,0.387-0.167,0.494-0.323c0.096-0.228,0.144-0.479,0.144-0.754c0-0.431-0.137-0.999-0.413-1.704
	C257.514,39.299,257.237,38.861,257.07,38.717"/>
<path fill="#FFFFFF" d="M261.083,34.324c-0.107-0.083-0.16-0.269-0.16-0.556l-1.038,1.472c0.012,0.358,0.059,1.542,0.14,3.552
	c0.059,1.459,0.088,2.656,0.088,3.588l0.09,0.592h0.07c0.551-0.562,0.893-0.944,1.023-1.148
	C261.298,38.164,261.227,35.664,261.083,34.324"/>
<line fill="#FFFFFF" x1="-10" y1="222.42" x2="-10" y2="-17.638"/>
<line fill="#FFFFFF" x1="274.842" y1="-17.638" x2="274.842" y2="222.42"/>
</svg>
